<svg version="1.2" xmlns="http://www.w3.org/2000/svg" viewBox="0 0 1000 1000" width="1000" height="1000">
	<title>vecteezy_revolver-cylinder-icon-vector-on-white-background_10031309-ai</title>
	<style>
		.s0 { fill: #000000;stroke: #000000;stroke-linecap: round;stroke-linejoin: round;stroke-width: 20 } 
	</style>
	<path id="&lt;Path&gt;" fill-rule="evenodd" class="s0" d="m950 580.9c-18.4 102.7-71.1 193.5-145.8 260.2-9.2-2.6-18.9-4-28.9-4-52.3 0-95.9 37.6-105.1 87.3-52.7 21.1-110.3 32.8-170.6 32.8-57.8 0-113.1-10.7-164-30.3-8.2-50.9-52.3-89.8-105.6-89.8-11.7 0-22.9 1.9-33.5 5.4-74.4-65.9-127.3-155.6-146.5-257.3 26-19.5 42.8-50.6 42.8-85.6 0-35-16.8-66.1-42.8-85.6 19.6-103.4 73.9-194.5 150.4-260.6 8.6 2.2 17.7 3.4 27 3.4 50.9 0 93.4-35.4 104.3-83 52-20.5 108.6-31.8 167.9-31.8 59.7 0 116.6 11.4 168.9 32.2 11 47.3 53.5 82.6 104.2 82.6 9.1 0 17.9-1.1 26.3-3.2 77.5 67 132.2 159.6 151 264.7-22.9 19.6-37.5 48.7-37.5 81.3 0 32.6 14.6 61.7 37.5 81.3zm-339.8-345.6c0-59.5-48-107.6-107.5-107.6-59.5 0-107.6 48.1-107.6 107.6 0 59.5 48.1 107.6 107.6 107.6 59.5 0 107.5-48.1 107.5-107.6zm255.1 403.6c0-59.5-48-107.6-107.5-107.6-59.5 0-107.6 48.1-107.6 107.6 0 59.5 48.1 107.6 107.6 107.6 59.5 0 107.5-48.1 107.5-107.6zm0-279.4c0-59.5-48-107.5-107.5-107.5-59.5 0-107.6 48-107.6 107.5 0 59.5 48.1 107.6 107.6 107.6 59.5 0 107.5-48.1 107.5-107.6zm-255.1 404.4c0-59.5-48-107.6-107.5-107.6-59.5 0-107.6 48.1-107.6 107.6 0 59.5 48.1 107.6 107.6 107.6 59.5 0 107.5-48.1 107.5-107.6zm-261.2-125c0-59.5-48.1-107.6-107.6-107.6-59.5 0-107.5 48.1-107.5 107.6 0 59.5 48 107.6 107.5 107.6 59.5 0 107.6-48.1 107.6-107.6zm0-279.4c0-59.5-48.1-107.5-107.6-107.5-59.5 0-107.5 48-107.5 107.5 0 59.5 48 107.6 107.5 107.6 59.5 0 107.6-48.1 107.6-107.6zm176 140.1c0-14.1-11.3-25.4-25.4-25.4-14.1 0-25.4 11.3-25.4 25.4 0 14.1 11.3 25.4 25.4 25.4 14.1 0 25.4-11.3 25.4-25.4z"/>
</svg>